<svg width="209" height="48" viewBox="0 0 209 48" fill="none" xmlns="http://www.w3.org/2000/svg">
<path d="M2 25.217L2.43713 25.3746L2.89101 25.536L3.32814 25.673L3.71134 25.885L4.44423 26.326L4.84788 26.538L5.17899 26.7857L5.80772 27.3467L6.08674 27.647L6.36576 27.9491L6.89033 28.5439L7.13587 28.8986L7.3628 29.2157L7.78134 29.9193L7.95619 30.274L8.14779 30.6774L8.41007 31.4336L8.67235 32.1729L8.8286 32.9835L8.95137 33.796L9.00345 34.6048L9.02205 35.4154L8.98671 36.2617L8.89928 37.0704L8.75977 37.8285L8.637 38.2338L8.56818 38.6391L8.2873 39.3953L8.16639 39.75L8.00827 40.1027L7.78134 40.4536L7.62322 40.8083L7.18795 41.4575L6.71547 42.1105L6.48853 42.4276L6.22625 42.6734L5.64961 43.2232L5.35384 43.4859L5.03948 43.6792L4.67117 43.9419L4.35867 44.1352L4.00896 44.3303L3.60717 44.4898L2.83893 44.7882L2.43713 44.8951L2.0186 45.0002L20.1811 44.9477H20.3727L20.687 44.8407L21.3865 44.5424L22.1026 44.2421L22.6086 43.9419L22.975 43.7317L23.2726 43.5385L23.6372 43.2758L23.9535 43.0262L24.2157 42.7804L24.4762 42.482L24.7384 42.2175L25.0007 41.9154L25.4899 41.3187L25.7001 40.9659L25.8564 40.6112L26.0833 40.2941L26.2414 39.9432L26.4144 39.5942L26.5372 39.1851L26.7641 38.4289L26.9576 37.6896L27.1324 36.9316L27.1492 36.5281L27.2199 36.1191L27.2534 35.3103V34.5522L27.2366 33.7435L27.1324 32.931L27.0097 32.1729L26.7995 31.4336L26.5725 30.6774L26.4516 30.3265L26.3103 29.955L26.1707 29.6548L25.9959 29.302L25.8564 28.9511L25.6815 28.649L25.4899 28.3525L25.2463 28.0523L25.0714 27.7877L24.8259 27.4875L24.4073 26.994L23.866 26.538L23.6372 26.326L23.3415 26.1308L23.0457 25.9751L22.7481 25.8325L22.1714 25.536L21.8738 25.429L21.526 25.3221L21.1763 25.2695L20.8265 25.217L20.1457 25.1626L2 25.217Z" fill="white"/>
<path d="M18.7283 4L2 4.05817L2.41667 4.1914L2.81288 4.32462L3.22956 4.47661L3.58857 4.66801L4.25078 5.06957L4.60793 5.25909L4.92973 5.48801L5.49708 6.00028L5.76122 6.28925L6.02536 6.57634L6.51644 7.12801L6.72478 7.45076L6.93311 7.71909L7.33118 8.38522L7.50046 8.70984L7.67159 9.07199L7.89667 9.77753L8.14221 10.4624L8.29474 11.2074L8.40821 11.9504L8.46587 12.6954V13.4366L8.42681 14.2378L8.35054 14.9846L8.23708 15.6695L8.12361 16.0504L8.0492 16.4126L7.78506 17.1181L7.68833 17.4428L7.53952 17.7655L7.33118 18.092L7.17865 18.4129L6.78244 19.0246L6.34717 19.6344L6.13883 19.9028L5.89329 20.1279L5.36501 20.6439L5.0804 20.8747L4.79766 21.0661L4.45726 21.2913L4.17265 21.4808L3.85271 21.6722L3.4751 21.8055L2.77568 22.0925L2.39807 22.1882L2.0186 22.2652L18.7469 22.2276H18.9348L19.2175 22.1338L19.8816 21.8655L20.5215 21.5784L21.0144 21.2913L21.3344 21.1206L21.6171 20.931L21.9594 20.704L22.2235 20.4525L22.4691 20.2236L22.7146 19.9572L22.9415 19.7114L23.1871 19.443L23.641 18.8914L23.8288 18.548L23.9814 18.2233L24.1878 17.9569L24.3404 17.6341L24.491 17.3095L24.6045 16.9267L24.811 16.2437L24.9821 15.5363L25.1533 14.8308L25.17 14.4686L25.2463 14.0858L25.2667 13.3427V12.6579L25.2463 11.9129L25.1533 11.168L25.0398 10.4624L24.8519 9.77753L24.6417 9.07199L24.5282 8.74737L24.3962 8.42275L24.2641 8.13753L24.1134 7.81478L23.9814 7.49016L23.8102 7.22183L23.641 6.93661L23.414 6.64952L23.2447 6.4206L23.0364 6.15602L22.6402 5.67941L22.1677 5.25909L21.9408 5.06394L21.6748 4.89881L21.4106 4.74307L21.1446 4.60984L20.5996 4.32462L20.3336 4.25144L20.0118 4.15199L19.69 4.0957L19.3701 4.05817L18.7283 4Z" fill="white"/>
<path d="M15.764 34.2238L16.1769 34.1281L16.5899 34.0155L17.3879 33.7115L17.8008 33.5501L18.1654 33.3418L18.5002 33.1336L18.8667 32.8765L19.1848 32.6682L19.5029 32.4111L20.1055 31.8313L20.379 31.5761L20.5855 31.2571L21.0933 30.5779L21.5397 29.9061L21.6997 29.5383L21.921 29.1837L22.0959 28.814L22.2243 28.4462L22.5089 27.675L22.5888 27.2585L22.7005 26.84L22.8437 26.0557L22.9385 25.2188L22.972 24.3368V23.5187L22.9069 22.6856L22.7804 21.8487L22.6223 21.0156L22.3507 20.2275L22.0792 19.4581L21.8876 19.0416L21.6997 18.6719L21.2681 17.9495L21.03 17.6305L20.7752 17.274L20.2506 16.6491L19.9474 16.3282L19.661 16.0243L19.0099 15.4463L18.6584 15.1874L18.2621 14.981L17.5144 14.5137L17.0995 14.3055L16.6531 14.1441L16.1937 13.9846L15.7305 13.8401L34.4436 13.7744L35.1597 13.8401L35.5262 13.8889L35.8759 13.9377L36.2405 14.0484L36.5437 14.1441L37.1482 14.4668L37.4533 14.6132L37.7528 14.7708L38.0392 14.981L38.2941 15.1874L38.8354 15.6546L39.2818 16.1669L39.5199 16.4896L39.7096 16.7467L39.9645 17.0657L40.1561 17.3715L40.3477 17.6755L40.4909 18.0452L40.6658 18.4167L40.809 18.7226L40.9522 19.0885L41.0954 19.4581L41.3001 20.2275L41.5251 21.0156L41.6516 21.8018L41.7632 22.6199L41.7781 23.4549L41.7967 24.2412L41.7465 25.0762L41.6833 25.4909L41.6684 25.9112L41.4749 26.6805L41.2852 27.4667L41.0303 28.2361L40.9206 28.6564L40.7457 29.0223L40.5709 29.392L40.3477 29.6959L40.171 30.0675L39.9496 30.4371L39.4567 31.0488L39.1869 31.3678L38.9154 31.623L38.6456 31.9458L38.374 32.201L38.056 32.4599L37.6895 32.7151L37.3547 32.9234L36.9882 33.1336L36.4637 33.4544L35.7326 33.7584L34.9849 34.0643L34.6668 34.1769H34.4752L15.764 34.2238Z" fill="white"/>
<path d="M94.8867 11.3348C94.8867 10.8807 95.2867 10.5166 95.7815 10.5166H102.054C102.549 10.5166 102.949 10.8807 102.949 11.3348V37.5823C102.949 38.0345 102.547 38.4023 102.054 38.4023H95.7815C95.2885 38.4023 94.8867 38.0364 94.8867 37.5823V11.3348Z" fill="white"/>
<path d="M68.2467 17.0337C66.8795 16.6884 65.2426 16.5158 63.8252 16.5158C60.9512 16.5608 57.949 17.6717 56.3902 19.8315C54.5858 22.1995 54.6007 26.1081 55.966 28.4874C58.388 32.7038 64.865 32.3247 69.0206 31.2908C69.3256 31.2608 69.7553 31.4147 69.7553 31.8294L69.7404 37.2166C69.7032 37.954 69.3238 38.0066 69.0206 38.1098C65.2556 39.1155 59.4575 39.1775 55.8005 38.0009C54.145 37.4737 52.8075 36.7925 51.8068 36.0138C49.8108 34.4432 48.4845 32.6175 47.787 30.6191C47.0597 28.5437 46.7434 26.5528 46.7825 24.7552C46.7825 21.4377 47.4708 18.7356 48.7319 16.5515C49.995 14.3579 51.7212 12.7329 53.9738 11.6183C56.2767 10.5187 59.0111 9.55618 62.0673 9.55618C64.2158 9.59746 65.6221 9.37791 67.5045 9.77946C67.7389 9.84326 68.2877 10.1397 68.2877 10.5769L68.2467 17.0318V17.0337Z" fill="white"/>
<path d="M112.048 38.5825C111.201 38.4605 110.398 38.2579 109.674 38.0552C108.975 37.8169 108.381 37.5486 107.875 37.2202C107.338 36.875 106.89 36.494 106.521 36.0869C106.099 35.5783 105.731 35.1224 105.481 34.687C105.147 34.141 104.871 33.655 104.691 33.1784C104.471 32.6962 104.3 32.1145 104.181 31.5872C104.023 31.0749 103.908 30.5533 103.871 30.0391C103.791 29.0746 103.791 28.0933 103.871 27.2864C103.908 26.6935 103.99 26.1249 104.107 25.5695C104.226 25.0065 104.391 24.4436 104.611 23.9651C104.795 23.4416 105.074 22.9087 105.361 22.4152C105.673 21.9029 106.026 21.4282 106.417 20.9553C107.148 20.0734 108.231 19.3435 109.628 18.8744C111.034 18.4015 112.792 18.1538 114.961 18.1538C116.014 18.1538 116.944 18.1932 117.835 18.3133C118.707 18.4728 119.498 18.6361 120.21 18.8725C120.887 19.0995 121.456 19.4054 122.005 19.76C122.519 20.0959 122.963 20.505 123.335 20.9553C123.731 21.4338 124.096 21.9236 124.41 22.4415C124.704 22.888 124.94 23.3928 125.188 23.9783C125.379 24.4849 125.573 25.0234 125.688 25.5695C125.807 26.123 125.928 26.6709 125.967 27.2658C125.971 27.3596 125.993 27.4459 126.017 27.5153C126.047 28.1083 126.042 28.902 126.006 29.752L125.969 29.9021C125.926 30.5533 125.807 31.1012 125.69 31.6135C125.573 32.1313 125.374 32.6868 125.177 33.2028C124.944 33.7038 124.671 34.1748 124.36 34.6795C124.042 35.158 123.687 35.6346 123.292 36.1131C122.939 36.4959 122.463 36.8675 121.918 37.2202C121.399 37.5561 120.835 37.8244 120.178 38.0627C119.46 38.2598 118.664 38.4643 117.79 38.5825C116.99 38.697 116.153 38.8152 115.178 38.8265L115.031 38.787C113.908 38.787 112.939 38.7045 112.046 38.5825M119.206 26.4927C119.096 26.1418 118.995 25.8791 118.835 25.607L118.449 24.9578C118.24 24.6969 118.03 24.4868 117.853 24.3066C117.619 24.1171 117.327 23.9238 117.003 23.8056C116.691 23.6536 116.343 23.5598 116.017 23.5148C115.668 23.4697 115.31 23.4247 114.961 23.4247C114.161 23.4247 113.463 23.5598 112.877 23.8056C112.28 24.0571 111.802 24.4248 111.434 24.9559C111.265 25.1792 111.121 25.41 111.015 25.6577C110.874 25.9072 110.779 26.1512 110.697 26.4007C110.634 26.6878 110.552 26.9449 110.511 27.1475C110.465 27.4271 110.42 27.7255 110.42 28.0088V29.1159C110.448 29.2904 110.455 29.4011 110.47 29.5081C110.485 29.6207 110.509 29.7727 110.561 29.9303C110.601 30.1573 110.651 30.405 110.751 30.6621C110.829 30.8967 110.919 31.1256 111.054 31.362C111.153 31.5984 111.296 31.8386 111.493 32.0563C111.668 32.3246 111.893 32.5348 112.107 32.7093C112.332 32.88 112.636 33.032 112.918 33.1352C113.231 33.2816 113.569 33.3754 113.897 33.4242C114.207 33.4674 114.561 33.5105 114.959 33.5105C115.357 33.5105 115.695 33.4636 116.006 33.4186C116.2 33.3717 116.367 33.3341 116.501 33.3004C116.648 33.2591 116.8 33.2084 116.96 33.1352C117.243 33.0358 117.546 32.88 117.771 32.7093C118.013 32.5123 118.229 32.2946 118.422 32.0507C118.556 31.8705 118.7 31.636 118.834 31.4127C118.969 31.0956 119.094 30.8779 119.181 30.6189C119.247 30.3225 119.326 30.1123 119.367 29.8609C119.406 29.6638 119.442 29.4368 119.453 29.206C119.485 29.114 119.496 29.0202 119.496 28.9302V27.7724L119.442 27.718C119.427 27.5266 119.395 27.3314 119.364 27.1438C119.325 26.9411 119.243 26.6897 119.202 26.487" fill="white"/>
<path d="M193.249 38.5825C192.364 38.4606 191.56 38.2579 190.835 38.0552C190.135 37.8169 189.542 37.5486 189.036 37.2202C188.547 36.8787 188.096 36.4978 187.683 36.085C187.289 35.6103 186.938 35.1318 186.621 34.6551C186.314 34.1504 186.084 33.6832 185.853 33.1784C185.658 32.6624 185.5 32.107 185.343 31.5872C185.228 31.0862 185.111 30.5795 185.074 30.0391C184.994 29.0746 184.994 28.0933 185.074 27.2864C185.113 26.7047 185.152 26.1399 185.263 25.5939C185.422 25.0328 185.581 24.4718 185.779 23.9501C186.024 23.3759 186.27 22.8618 186.556 22.4227C186.813 21.9405 187.174 21.4488 187.577 20.9553C188.359 20.0584 189.41 19.3378 190.788 18.8744C192.194 18.4015 193.989 18.1538 196.121 18.1538C197.174 18.1538 198.147 18.1932 199.036 18.3133C199.866 18.4728 200.656 18.6361 201.37 18.8725C202.059 19.1052 202.671 19.4129 203.208 19.76C203.722 20.0959 204.177 20.5181 204.551 20.9703C204.977 21.4413 205.338 21.9236 205.647 22.4302C205.93 22.92 206.205 23.4472 206.387 23.9651C206.622 24.4793 206.789 25.0666 206.945 25.6201C207.059 26.1605 207.131 26.701 207.209 27.277V27.3352C207.25 27.9413 207.291 28.842 207.209 29.7689V29.9603C207.131 30.5514 207.051 31.1031 206.934 31.6135C206.78 32.1163 206.627 32.653 206.397 33.154C206.16 33.6757 205.922 34.1579 205.602 34.6795C205.288 35.1524 204.938 35.6215 204.516 36.085C204.149 36.4903 203.697 36.875 203.162 37.2202C202.646 37.5542 202.042 37.8244 201.324 38.0684C200.61 38.2673 199.819 38.4662 198.988 38.5844C198.147 38.6989 197.308 38.8171 196.363 38.8321L196.171 38.7908C195.104 38.7908 194.133 38.7082 193.242 38.5863M191.584 28.1702V29.3298L191.642 29.388C191.659 29.5644 191.688 29.7351 191.718 29.8871C191.744 30.0391 191.781 30.1799 191.826 30.3187C191.858 30.4107 191.893 30.5064 191.93 30.5983C191.966 30.7597 192.019 30.9004 192.07 31.0186C192.111 31.1181 192.159 31.2138 192.196 31.3095C192.382 31.6397 192.525 31.8724 192.659 32.0525C192.836 32.2758 193.044 32.486 193.223 32.6661L193.316 32.7431C193.457 32.8294 193.571 32.8969 193.688 32.9589C193.828 33.0339 193.974 33.0977 194.134 33.1503C194.428 33.276 194.722 33.3754 195.068 33.4261C195.418 33.4692 195.775 33.5124 196.127 33.5124C196.525 33.5124 196.88 33.4711 197.189 33.4261C197.418 33.3679 197.555 33.336 197.684 33.3022C197.823 33.2685 197.992 33.2178 198.167 33.1371C198.307 33.0865 198.439 33.0264 198.563 32.9589C198.681 32.8969 198.805 32.8181 198.919 32.7524C199.185 32.5442 199.415 32.3284 199.592 32.0582C199.787 31.8405 199.929 31.6003 200.031 31.3639C200.172 31.1124 200.265 30.8723 200.347 30.6208C200.424 30.42 200.468 30.2174 200.548 29.9791C200.619 29.6545 200.667 29.3542 200.667 29.0559V28.0088C200.667 27.7217 200.623 27.4309 200.574 27.1475L200.545 27.0293C200.455 26.8079 200.416 26.5734 200.342 26.3763C200.26 26.1362 200.171 25.8997 200.033 25.6577C199.927 25.41 199.786 25.1792 199.616 24.9559C199.445 24.6838 199.233 24.4793 199.019 24.2991C198.764 24.0533 198.441 23.8994 198.171 23.8037C197.873 23.6593 197.563 23.5598 197.178 23.511C196.871 23.466 196.521 23.4247 196.129 23.4247C195.366 23.4247 194.666 23.5598 194.084 23.8056C193.509 24.0477 192.968 24.4305 192.587 24.9803L192.183 25.6558C192.075 25.926 191.99 26.1418 191.908 26.3989C191.861 26.5246 191.822 26.6559 191.793 26.7948C191.768 26.8961 191.75 26.9993 191.729 27.0931C191.679 27.2639 191.655 27.429 191.64 27.5791C191.633 27.6617 191.631 27.7386 191.627 27.8212C191.599 27.9113 191.588 27.9994 191.588 28.0895V28.1664L191.584 28.1702Z" fill="white"/>
<path d="M78.2516 25.6595C78.1083 25.9091 78.0153 26.153 77.9335 26.4026C77.8702 26.6897 77.7865 26.9468 77.7475 27.1494C77.701 27.429 77.6563 27.7274 77.6563 28.0107V29.0709C77.6842 29.2604 77.6917 29.388 77.7084 29.5043C77.7214 29.6226 77.7456 29.7746 77.7995 29.9341C77.8386 30.163 77.8888 30.4088 77.9911 30.6659C78.0693 30.9004 78.1586 31.1293 78.2943 31.3658C78.3929 31.6022 78.538 31.8424 78.7315 32.06C78.9082 32.3284 79.1463 32.5479 79.3602 32.7224C79.5034 32.8125 79.6411 32.8988 79.7601 32.9607C79.8848 33.0283 80.015 33.0846 80.1564 33.1352C80.467 33.2854 80.8074 33.3792 81.1348 33.428C81.4454 33.4711 81.7989 33.5143 82.2007 33.5143C82.6024 33.5143 82.9354 33.4674 83.2461 33.4223C83.4377 33.3754 83.6051 33.3379 83.7409 33.3041C83.8878 33.2628 84.0422 33.2122 84.2003 33.139C84.4849 33.0395 84.7863 32.8838 85.0113 32.713C85.2532 32.516 85.4708 32.2984 85.6642 32.0544C85.7982 31.8743 85.9396 31.6397 86.0735 31.4164C86.2111 31.0993 86.3376 30.8816 86.4213 30.6227C86.4827 30.345 86.5553 30.148 86.5999 29.919C86.6687 29.6864 86.7004 29.3955 86.7152 29.2097C86.7357 28.9789 86.7394 28.7838 86.7394 28.7838V28.2378L86.6985 27.9507C86.6929 27.688 86.6501 27.4121 86.6073 27.1494C86.5664 26.9468 86.4846 26.6953 86.4437 26.4927C86.3339 26.1418 86.2353 25.8791 86.0716 25.607L85.6866 24.9578C85.4764 24.6969 85.268 24.4868 85.0895 24.3066C84.8551 24.1171 84.5649 23.9238 84.2412 23.8056C83.9287 23.6536 83.5809 23.5598 83.2535 23.5148C82.9019 23.4697 82.5466 23.4247 82.1988 23.4247C81.3989 23.4247 80.6995 23.5598 80.1136 23.8056C79.5146 24.0571 79.0384 24.4248 78.672 24.9559C78.5008 25.1792 78.3594 25.41 78.2534 25.6577M93.2499 29.8646L93.2425 29.9622C93.2034 30.5533 93.0844 31.1049 92.9672 31.6135C92.8481 32.1314 92.651 32.6868 92.4538 33.2028C92.2194 33.7038 91.946 34.1748 91.6372 34.6795C91.3191 35.158 90.9638 35.6346 90.5695 36.1131C90.216 36.4959 89.7417 36.8675 89.1967 37.2202C88.6851 37.5524 88.0862 37.8226 87.4128 38.0627C86.6948 38.2598 85.8968 38.4643 85.0225 38.5825C84.1743 38.7045 83.2702 38.8302 82.2193 38.8302C81.1757 38.8715 80.1619 38.7045 79.2802 38.5825C78.4339 38.4606 77.6303 38.2579 76.9067 38.0552C76.2073 37.8169 75.6139 37.5486 75.1079 37.2202C74.5722 36.875 74.122 36.4941 73.7537 36.0869C73.3333 35.5784 72.965 35.1224 72.7139 34.687C72.3809 34.141 72.1075 33.655 71.9252 33.1784C71.7057 32.6962 71.5346 32.1145 71.4137 31.5872C71.2574 31.0749 71.1402 30.5533 71.103 30.0391C71.023 29.0746 71.023 28.0933 71.103 27.2864C71.1421 26.6935 71.2221 26.1249 71.3393 25.5695C71.4583 25.0065 71.6257 24.4436 71.8434 23.9651C72.0275 23.4416 72.3065 22.9087 72.593 22.4152C72.9074 21.9029 73.2589 21.4282 73.6496 20.9553C74.3806 20.0734 75.4632 19.3435 76.8602 18.8744C78.2664 18.4015 80.0224 18.1538 82.1951 18.1538C83.2461 18.1538 84.178 18.1932 85.0671 18.3133C85.9377 18.4728 86.7301 18.6361 87.4425 18.8725C88.1308 19.1052 88.7447 19.4129 89.2804 19.76C89.7938 20.0959 90.2384 20.505 90.6104 20.9553C91.0066 21.4338 91.3693 21.9236 91.6856 22.4415C91.9795 22.8881 92.2157 23.3928 92.4649 23.9783C92.6584 24.4849 92.8481 25.0234 92.9653 25.5695C93.0844 26.123 93.2034 26.6709 93.2425 27.2658C93.2462 27.3596 93.2685 27.4459 93.2927 27.5153C93.3262 28.1158 93.3206 28.9245 93.2834 29.7858L93.2481 29.8627L93.2499 29.8646Z" fill="white"/>
<path d="M152.387 26.9655C152.395 26.8866 152.398 26.2881 152.398 26.2093C152.398 24.6743 151.314 23.4284 149.777 23.3946C149.164 23.3758 147.854 23.4021 147.316 23.4152V37.6104C147.316 38.0158 146.985 38.3423 146.578 38.3423H140.824C140.417 38.3423 140.086 38.0139 140.086 37.6104V36.4208L140.066 26.547C140.053 26.4138 140.056 26.3106 140.056 26.2055C140.056 24.6499 138.788 23.3927 137.223 23.3927C137.145 23.3927 137.065 23.3871 136.983 23.3852C136.907 23.3815 136.849 23.3815 136.808 23.3909L135.095 23.3946V37.6123C135.095 38.0195 134.764 38.3441 134.359 38.3441H128.488C128.079 38.3441 127.75 38.0158 127.75 37.6123V20.625C127.75 19.4541 128.388 18.6641 129.567 18.6641L151.604 18.6979C152.575 18.6979 153.624 18.7748 154.433 18.9362C154.818 19.015 155.233 19.0976 155.577 19.2102C157.625 19.7168 158.942 21.7884 159.348 22.8242C159.619 23.7098 159.727 24.6443 159.727 25.53V26.273C159.733 26.3143 159.74 26.3612 159.74 26.4063V37.6142C159.74 38.0195 159.292 38.346 158.883 38.346H153.124C152.716 38.346 152.385 38.0176 152.385 37.6142V26.9692L152.387 26.9655Z" fill="white"/>
<path d="M174.784 18.2814C175.645 18.2814 176.475 18.3602 177.181 18.5178C177.553 18.5948 177.858 18.668 178.158 18.7824C178.448 18.8913 179.068 19.2102 179.265 19.3378C179.812 19.6925 179.988 19.8238 180.399 20.1278C180.593 20.3211 180.788 20.4787 180.984 20.6739C181.396 21.0904 182.062 22.1394 182.421 22.9068C182.552 23.1902 182.645 23.4416 182.725 23.6949C182.806 23.9557 182.877 24.2147 182.955 24.4905C183.072 25.0778 183.232 25.6089 183.272 26.2375C183.353 26.928 183.439 27.5153 183.439 28.3278V29.5119C183.439 29.919 183.4 30.2868 183.398 30.6565C183.357 31.0524 183.318 31.3751 183.277 31.6979L183.175 32.2496C183.145 32.394 183.11 32.5517 183.061 32.6811C182.38 34.8935 180.896 36.4152 178.87 37.4398C177.979 37.9276 176.871 38.2185 175.74 38.3799C175.68 38.3949 175.61 38.4005 175.559 38.4043C175.479 38.408 175.401 38.408 175.331 38.408H164.395C162.155 38.1509 161.346 36.9012 161.346 34.1485V11.6933C161.346 11.6557 161.352 11.622 161.361 11.5882V11.2673C161.361 10.8151 161.724 10.4492 162.172 10.4492H167.756C168.204 10.4492 168.567 10.8151 168.567 11.2673V12.6446L168.578 18.2814H174.784ZM168.556 23.3947V31.9081C168.615 32.683 169.047 33.5255 170.085 33.6006L172.185 33.64C172.306 33.64 172.507 33.6006 172.706 33.6006C173.193 33.5556 173.794 33.4505 174.237 33.3173C175.842 32.6568 176.45 31.1368 176.629 30.4538C176.891 29.3599 177.044 27.4178 176.214 25.7477C175.972 25.258 175.649 24.8414 175.243 24.4342C174.469 23.8075 173.294 23.4378 172.546 23.3947C172.28 23.3534 172.219 23.3947 171.951 23.3947H168.554H168.556Z" fill="white"/>
<path d="M71.7398 8.93896H70.6348V14.5439H71.7398V8.93896Z" fill="white"/>
<path d="M74.3141 12.5999C74.3141 13.2923 74.2155 13.8571 73.7263 13.8571C73.2371 13.8571 73.1404 13.2923 73.1404 12.5999C73.1404 11.9075 73.239 11.3164 73.7263 11.3164C74.2137 11.3164 74.3141 11.915 74.3141 12.5999ZM75.4098 12.6149C75.4098 11.4665 74.8294 10.6221 73.7189 10.6221C72.6084 10.6221 72.041 11.4647 72.041 12.6149C72.041 13.7652 72.6214 14.6152 73.7263 14.6152C74.8312 14.6152 75.4116 13.7652 75.4116 12.6149" fill="white"/>
<path d="M76.9213 9.59556C76.9213 9.30471 76.659 9.06641 76.3335 9.06641C76.008 9.06641 75.7457 9.30471 75.7457 9.58805C75.7457 9.87139 76.008 10.1097 76.3335 10.1097C76.659 10.1097 76.9213 9.8789 76.9213 9.59556ZM76.8841 14.1159V10.6951H75.781V14.251C75.781 15.0222 75.5615 15.2774 75.1504 15.4143V16.1499C76.1493 16.1067 76.8841 15.3656 76.8841 14.1159Z" fill="white"/>
<path d="M79.2724 13.9228C79.1739 13.9734 79.0325 14.0016 78.8707 14.0016C78.4317 14.0016 78.1768 13.8102 78.1768 13.3598C78.1768 12.7481 78.6084 12.5905 79.2743 12.5267V13.9246L79.2724 13.9228ZM80.3067 14.3281V12.0313C80.3067 10.988 79.6687 10.624 78.8056 10.624C78.134 10.624 77.6374 10.8023 77.3695 10.9167L77.6095 11.5528C77.8569 11.4384 78.2326 11.3183 78.6009 11.3183C79.0027 11.3183 79.2724 11.4309 79.2724 11.8324V12.0107C78.1266 12.1195 77.1426 12.4104 77.1426 13.403C77.1426 14.2023 77.7081 14.617 78.813 14.617C79.4715 14.617 79.9886 14.5026 80.3067 14.3299" fill="white"/>
<path d="M83.0648 13.3935C83.0648 12.945 82.8955 12.5791 82.1589 12.2658C81.8613 12.1363 81.6697 11.9937 81.6697 11.7366C81.6697 11.5152 81.8185 11.3369 82.1087 11.3369C82.3561 11.3369 82.5756 11.4439 82.689 11.5358L82.9588 10.8997C82.6611 10.714 82.3356 10.6201 81.8613 10.6201C81.0968 10.6201 80.5852 11.1493 80.5852 11.806C80.5852 12.2057 80.7433 12.5979 81.4409 12.8775C81.7962 13.0201 81.9301 13.1627 81.9301 13.4198C81.9301 13.66 81.7404 13.8401 81.4558 13.8401C81.1712 13.8401 80.9182 13.735 80.7768 13.6206L80.4941 14.3261C80.7266 14.4837 81.1451 14.6057 81.612 14.6057C82.5179 14.6057 83.0629 14.0634 83.0629 13.3916" fill="white"/>
<path fill-rule="evenodd" clip-rule="evenodd" d="M90.9437 9.12809L91.5836 10.4378C91.632 10.5373 91.725 10.6048 91.8348 10.6217L93.2671 10.8319C93.5405 10.8713 93.6484 11.2109 93.4512 11.4042L92.4151 12.4231C92.337 12.5 92.3016 12.6107 92.3202 12.7196L92.5658 14.1588C92.6123 14.4328 92.3277 14.6429 92.0821 14.5134L90.8005 13.8342C90.7038 13.7835 90.5885 13.7835 90.4899 13.8342L89.2082 14.5134C88.9645 14.6429 88.6781 14.4346 88.7246 14.1588L88.9701 12.7196C88.9887 12.6107 88.9534 12.5 88.8753 12.4231L87.8392 11.4042C87.642 11.2091 87.7499 10.8713 88.0233 10.8319L89.4556 10.6217C89.5635 10.6067 89.6584 10.5373 89.7067 10.4378L90.3466 9.12809C90.4694 8.87853 90.821 8.87853 90.9437 9.12809Z" fill="white"/>
<path fill-rule="evenodd" clip-rule="evenodd" d="M86.9322 12.8923C87.9739 12.2112 88.3534 13.1756 87.44 13.6935C86.4932 14.2302 84.4396 15.2078 81.3574 17.6866C82.133 16.7765 83.8853 15.0014 86.9304 12.8923H86.9322Z" fill="white"/>
</svg>
